<?xml version="1.0" standalone="no"?><!DOCTYPE svg PUBLIC "-//W3C//DTD SVG 1.1//EN" "http://www.w3.org/Graphics/SVG/1.1/DTD/svg11.dtd"><svg t="1677228521095" class="icon" viewBox="0 0 1024 1024" version="1.1" xmlns="http://www.w3.org/2000/svg" p-id="5970" xmlns:xlink="http://www.w3.org/1999/xlink" width="200" height="200"><path d="M567.32505 547.18536c20.970614-21.479197 20.970614-56.307424 0-77.790714L185.251168 77.115332c-20.971637-21.47715-54.975079-21.47715-75.948763 0-20.973684 21.484314-20.973684 56.30947 0 77.793784l344.188016 353.383446-344.188016 353.384469c-20.973684 21.484314-20.973684 56.311517 0 77.79276 20.971637 21.482267 54.975079 21.482267 75.948763 0l382.072858-392.280337 0.001024-0.004094zM440.60802 154.908092l344.18597 353.383446-344.18597 353.385493c-20.973684 21.484314-20.973684 56.311517 0 77.79276 20.972661 21.482267 54.975079 21.482267 75.949786 0l382.074905-392.281361c20.966521-21.478174 20.966521-56.307424 0-77.790714L516.555759 77.115332c-20.972661-21.47715-54.975079-21.47715-75.949786 0-20.971637 21.48329-20.971637 56.30947 0.002047 77.79276z" p-id="5971"></path></svg>